<svg id="svg" version="1.1" xmlns="http://www.w3.org/2000/svg" xmlns:xlink="http://www.w3.org/1999/xlink" width="400" height="138.66666666666666" viewBox="0, 0, 400,138.66666666666666"><g id="svgg"><path id="path0" d="M287.243 12.842 C 286.507 12.914,285.457 13.137,284.910 13.338 C 284.364 13.540,283.163 13.916,282.241 14.176 C 277.714 15.450,273.104 18.352,269.679 22.083 C 266.379 25.680,266.611 25.342,264.070 30.251 C 262.527 33.232,262.000 34.850,262.000 36.612 C 262.000 36.833,261.859 37.292,261.686 37.632 C 261.058 38.867,260.833 40.243,260.833 42.847 C 260.833 44.214,260.799 45.333,260.758 45.333 C 260.717 45.333,260.248 45.217,259.716 45.075 C 257.045 44.361,248.828 44.614,246.162 45.493 C 245.299 45.777,244.140 46.115,243.588 46.244 C 238.507 47.430,230.190 53.662,227.421 58.358 C 227.240 58.665,226.805 59.404,226.454 60.000 C 225.472 61.669,223.936 65.036,223.671 66.101 C 223.476 66.881,223.159 69.313,223.076 70.656 C 223.046 71.154,222.975 71.742,222.920 71.963 C 222.786 72.499,222.791 79.630,222.926 79.849 C 222.984 79.943,223.051 80.484,223.076 81.051 C 223.134 82.420,223.744 85.128,224.239 86.213 C 224.457 86.692,224.793 87.608,224.986 88.250 C 225.482 89.905,226.515 91.916,226.869 91.919 C 227.026 91.920,227.268 92.070,227.406 92.252 C 227.543 92.434,227.658 92.520,227.661 92.443 C 227.669 92.242,229.510 94.186,229.688 94.583 C 229.770 94.767,229.985 95.160,230.165 95.458 C 230.346 95.756,230.446 96.000,230.387 96.000 C 230.329 96.000,230.413 96.145,230.574 96.323 C 230.735 96.500,230.812 96.733,230.745 96.841 C 230.585 97.100,232.576 98.980,234.104 100.013 C 234.757 100.454,235.395 100.918,235.521 101.044 C 237.220 102.740,243.477 105.489,246.618 105.919 C 247.607 106.055,249.017 106.334,249.750 106.539 C 251.664 107.076,256.103 107.067,258.083 106.523 C 258.817 106.322,260.179 106.049,261.112 105.918 C 262.766 105.684,263.718 105.345,266.767 103.902 C 267.728 103.447,270.063 102.063,272.167 100.699 C 275.574 98.492,280.369 92.698,281.656 89.233 C 281.857 88.692,282.197 87.875,282.412 87.417 C 282.818 86.552,283.333 84.376,283.333 83.528 C 283.333 83.260,283.515 82.631,283.737 82.129 C 284.295 80.867,284.489 79.665,284.613 76.708 C 284.671 75.310,284.766 74.167,284.824 74.167 C 284.881 74.167,285.363 74.320,285.895 74.506 C 288.451 75.405,293.856 75.396,296.733 74.488 C 297.292 74.312,298.650 74.049,299.750 73.906 C 304.917 73.230,313.273 67.967,316.272 63.500 C 316.487 63.179,316.787 62.745,316.939 62.536 C 317.090 62.327,317.234 61.877,317.257 61.536 C 317.435 58.913,319.811 51.376,321.365 48.502 C 321.737 47.814,322.195 46.950,322.382 46.583 C 322.569 46.217,322.832 45.787,322.966 45.629 C 323.379 45.144,323.153 39.569,322.668 38.250 C 322.465 37.700,322.163 36.626,321.995 35.864 C 321.420 33.249,319.727 29.376,318.142 27.053 C 317.881 26.670,317.667 26.306,317.667 26.243 C 317.667 25.647,313.724 21.337,311.242 19.219 C 309.087 17.380,304.222 14.777,301.962 14.254 C 301.346 14.111,300.222 13.766,299.464 13.487 C 297.401 12.726,291.594 12.420,287.243 12.842 M294.521 25.497 C 297.415 25.961,297.810 26.072,299.545 26.912 C 304.077 29.104,308.055 33.176,308.988 36.577 C 309.181 37.282,309.489 38.151,309.671 38.509 C 310.146 39.439,310.375 43.143,310.159 46.371 C 309.943 49.579,309.048 51.596,306.105 55.500 C 304.008 58.282,303.733 58.500,300.027 60.325 C 296.468 62.076,296.529 62.062,292.518 62.135 C 288.236 62.214,287.657 62.120,284.886 60.893 C 283.751 60.391,282.394 59.901,281.869 59.805 C 281.345 59.709,280.746 59.599,280.537 59.561 C 280.328 59.523,279.953 59.189,279.704 58.819 C 279.454 58.450,279.011 57.833,278.718 57.449 C 278.426 57.064,277.850 56.181,277.439 55.487 C 277.027 54.792,276.421 53.870,276.091 53.438 C 274.712 51.631,273.219 46.710,273.152 43.750 C 273.117 42.222,273.964 38.101,274.576 36.826 C 274.901 36.148,275.167 35.507,275.167 35.402 C 275.167 35.297,275.319 35.018,275.506 34.781 C 275.692 34.544,275.953 34.140,276.086 33.883 C 277.817 30.532,284.040 26.369,288.250 25.747 C 289.258 25.598,290.346 25.414,290.667 25.338 C 291.605 25.116,292.332 25.146,294.521 25.497 M256.750 57.643 C 258.380 57.908,259.201 58.156,261.188 58.984 C 262.528 59.543,263.773 60.000,263.954 60.000 C 264.833 60.000,266.333 61.203,266.333 61.907 C 266.333 61.960,266.746 62.561,267.250 63.243 C 267.754 63.924,268.167 64.519,268.167 64.565 C 268.167 64.610,268.579 65.248,269.082 65.983 C 269.585 66.719,270.124 67.642,270.279 68.035 C 270.433 68.428,270.721 69.012,270.918 69.333 C 271.285 69.933,272.176 74.720,272.170 76.061 C 272.157 78.769,270.551 84.370,269.624 84.943 C 269.532 85.000,268.961 85.808,268.354 86.739 C 266.278 89.924,261.193 93.288,257.395 93.990 C 256.130 94.224,250.255 94.217,249.133 93.980 C 242.432 92.567,235.591 84.720,235.164 77.957 C 234.961 74.744,235.189 71.121,235.650 70.235 C 235.836 69.877,236.166 69.096,236.383 68.500 C 238.237 63.409,244.300 58.410,249.441 57.736 C 250.527 57.594,251.679 57.411,252.000 57.329 C 252.752 57.138,254.249 57.237,256.750 57.643 " stroke="none" fill="#fcfcfc" fill-rule="evenodd"></path><path id="path1" d="M367.750 18.272 C 364.837 18.725,360.963 21.086,360.081 22.945 C 359.308 24.573,359.044 29.085,359.596 31.216 C 360.759 35.706,365.209 37.696,371.809 36.679 C 376.870 35.899,379.329 33.083,379.332 28.062 C 379.334 25.032,379.041 23.963,377.638 21.877 C 375.990 19.426,371.306 17.718,367.750 18.272 M76.583 21.170 C 76.125 21.252,75.412 21.439,75.000 21.587 C 74.491 21.769,72.963 21.933,70.250 22.096 C 62.405 22.568,59.667 24.169,59.667 28.282 C 59.667 31.895,61.881 33.975,65.750 33.999 C 66.208 34.002,66.752 34.050,66.958 34.105 L 67.333 34.206 67.333 62.750 L 67.333 91.294 65.875 91.407 C 64.143 91.541,62.801 91.884,62.000 92.399 C 60.864 93.128,60.992 93.170,58.500 91.261 C 56.589 89.797,55.499 89.241,53.736 88.831 C 52.919 88.641,51.688 88.309,51.000 88.093 C 49.474 87.614,48.561 87.515,44.083 87.344 C 38.994 87.151,35.053 86.096,39.132 86.020 C 43.572 85.936,47.603 84.576,51.917 81.706 C 56.319 78.777,58.115 76.242,60.093 70.167 C 60.766 68.098,60.709 62.618,59.992 60.550 C 59.712 59.743,59.338 58.598,59.160 58.005 C 58.982 57.412,58.498 56.345,58.085 55.634 C 57.671 54.923,57.333 54.199,57.333 54.026 C 57.333 53.149,59.245 51.775,61.398 51.103 C 63.322 50.503,64.676 49.140,65.107 47.369 C 65.167 47.120,65.318 46.769,65.442 46.588 C 65.744 46.146,65.742 43.382,65.439 42.545 C 65.313 42.199,65.039 41.354,64.830 40.667 C 63.387 35.930,58.828 34.648,53.333 37.433 C 50.790 38.723,48.399 42.007,47.584 45.329 C 47.321 46.404,47.253 46.522,46.937 46.451 C 46.742 46.407,46.021 46.250,45.333 46.102 C 44.646 45.954,43.371 45.627,42.500 45.375 C 40.975 44.934,40.775 44.917,37.083 44.920 L 33.250 44.923 31.117 45.628 C 29.944 46.016,28.886 46.333,28.767 46.333 C 27.671 46.333,22.473 49.576,20.560 51.452 C 16.721 55.218,15.330 58.993,15.339 65.618 C 15.346 70.103,15.433 70.761,16.283 72.750 C 16.558 73.392,16.906 74.257,17.058 74.672 C 17.529 75.964,18.608 77.479,20.625 79.682 C 21.198 80.308,21.667 80.900,21.667 80.998 C 21.667 81.254,20.758 83.018,20.080 84.078 C 19.761 84.576,19.500 85.023,19.500 85.071 C 19.500 85.119,19.165 85.703,18.755 86.371 C 17.061 89.126,17.213 92.851,19.154 96.203 C 20.029 97.715,20.021 97.763,18.736 98.750 C 15.227 101.445,12.820 106.342,12.839 110.750 C 12.864 116.466,17.764 122.666,23.645 124.421 C 24.436 124.658,25.550 125.033,26.121 125.257 C 29.034 126.395,43.546 126.331,47.000 125.165 C 47.779 124.902,48.979 124.523,49.667 124.324 C 53.505 123.210,58.467 119.636,60.531 116.499 C 62.178 113.994,63.333 111.286,63.333 109.926 C 63.333 109.731,63.528 109.012,63.765 108.327 C 64.107 107.340,64.215 106.653,64.283 105.000 L 64.370 102.917 75.560 102.917 C 88.179 102.917,87.863 102.945,89.496 101.654 L 90.354 100.976 91.230 101.651 C 92.941 102.971,92.270 102.905,104.408 102.963 C 119.067 103.035,119.440 102.948,120.360 99.282 C 121.496 94.756,119.605 92.011,114.940 91.416 C 113.854 91.278,112.897 91.123,112.815 91.072 C 112.730 91.019,112.667 83.785,112.667 74.017 C 112.667 54.982,112.723 55.928,111.429 53.357 C 109.810 50.144,105.340 46.880,101.686 46.244 C 98.343 45.662,90.988 45.805,89.095 46.488 C 87.570 47.038,85.127 48.178,84.402 48.677 C 84.010 48.946,83.612 49.167,83.516 49.167 C 83.397 49.167,83.327 45.305,83.295 36.958 C 83.242 23.174,83.285 23.658,81.980 22.353 C 80.945 21.318,78.617 20.808,76.583 21.170 M216.750 21.168 C 216.292 21.251,215.579 21.439,215.167 21.587 C 214.653 21.770,213.120 21.932,210.302 22.098 C 202.397 22.566,199.667 24.153,199.667 28.282 C 199.667 31.895,201.881 33.975,205.750 33.999 C 206.208 34.002,206.752 34.050,206.958 34.105 L 207.333 34.206 207.333 40.199 L 207.333 46.193 206.792 46.084 C 206.494 46.023,205.463 45.746,204.500 45.467 C 202.336 44.840,197.054 44.610,194.917 45.048 C 189.628 46.133,185.844 48.031,182.002 51.526 C 179.371 53.920,176.212 58.255,175.584 60.333 C 175.514 60.563,175.212 61.275,174.913 61.917 C 174.613 62.558,174.276 63.533,174.163 64.083 C 174.051 64.633,173.750 65.646,173.494 66.333 C 172.318 69.493,172.271 83.279,173.424 86.568 C 173.652 87.218,173.952 88.156,174.091 88.653 C 174.437 89.890,175.927 93.314,176.304 93.738 C 176.474 93.928,176.859 94.533,177.162 95.083 C 182.258 104.356,194.976 107.139,206.417 101.486 C 209.199 100.110,208.804 100.139,209.596 101.253 C 210.106 101.971,210.487 102.291,211.331 102.711 L 212.413 103.250 216.998 103.230 C 228.233 103.182,229.737 102.687,231.071 98.597 C 231.330 97.803,231.327 97.765,230.985 97.401 C 230.791 97.194,230.684 96.939,230.749 96.835 C 230.813 96.731,230.735 96.500,230.574 96.323 C 230.413 96.145,230.329 96.000,230.387 96.000 C 230.446 96.000,230.346 95.756,230.165 95.458 C 229.985 95.160,229.770 94.767,229.688 94.583 C 229.490 94.142,227.734 92.322,227.618 92.438 C 227.568 92.488,227.445 92.375,227.344 92.187 C 227.243 91.999,227.058 91.885,226.931 91.934 C 226.805 91.983,226.587 91.859,226.447 91.659 C 226.222 91.338,226.027 91.292,224.804 91.272 L 223.417 91.250 223.371 88.204 C 223.344 86.409,223.394 85.032,223.492 84.849 C 223.607 84.633,223.577 84.167,223.392 83.311 C 223.246 82.636,223.105 81.619,223.079 81.051 C 223.053 80.484,222.984 79.943,222.926 79.849 C 222.791 79.630,222.786 72.499,222.920 71.963 C 222.975 71.742,223.046 71.154,223.077 70.656 C 223.108 70.158,223.227 69.037,223.342 68.167 C 223.457 67.296,223.531 66.433,223.507 66.250 C 223.483 66.067,223.415 56.654,223.357 45.333 C 223.237 22.337,223.315 23.719,222.066 22.336 C 221.122 21.292,218.843 20.791,216.750 21.168 M329.583 42.237 C 327.335 42.672,323.167 44.573,323.167 45.164 C 323.167 45.338,323.093 45.526,323.003 45.582 C 322.912 45.638,322.660 46.036,322.442 46.467 C 322.224 46.897,321.740 47.814,321.366 48.502 C 319.840 51.319,317.463 58.821,317.248 61.500 C 317.223 61.821,317.194 62.134,317.184 62.196 C 317.174 62.257,316.961 62.557,316.710 62.862 C 316.459 63.167,316.386 63.312,316.549 63.184 C 316.938 62.876,317.122 63.125,317.932 65.044 C 318.638 66.720,319.905 68.728,320.839 69.652 C 322.275 71.074,324.105 72.641,325.470 73.618 C 326.983 74.700,327.552 75.034,331.917 77.403 C 337.628 80.503,338.543 81.122,340.009 82.876 C 341.762 84.974,341.216 87.795,338.855 88.843 C 336.664 89.815,335.067 90.033,333.518 89.573 C 333.037 89.430,331.955 89.166,331.113 88.986 C 328.605 88.449,328.737 88.563,328.505 86.724 C 328.395 85.852,328.167 84.751,327.997 84.278 C 326.507 80.122,326.283 79.743,324.942 79.092 C 321.588 77.467,316.708 78.706,315.993 81.365 C 315.887 81.760,315.732 82.256,315.650 82.466 C 315.389 83.133,315.466 93.626,315.739 94.525 C 316.471 96.939,318.001 97.835,325.583 100.297 C 327.051 100.773,341.395 100.711,342.750 100.222 C 349.616 97.745,352.944 95.038,355.401 89.931 C 357.164 86.266,357.252 79.175,355.578 75.707 C 355.168 74.859,354.833 74.118,354.833 74.062 C 354.833 73.706,353.095 71.644,351.586 70.208 C 349.216 67.953,346.232 66.021,339.811 62.583 C 334.491 59.735,332.000 57.220,332.000 54.698 C 332.000 53.930,332.555 53.072,333.196 52.848 C 334.824 52.281,340.663 52.978,340.668 53.740 C 340.673 54.578,341.206 57.130,341.561 58.013 C 341.802 58.616,342.001 59.254,342.001 59.430 C 342.007 60.976,343.177 62.984,344.427 63.596 C 347.731 65.212,352.628 63.952,353.340 61.302 C 353.447 60.907,353.601 60.411,353.683 60.200 C 353.934 59.562,353.867 49.393,353.607 48.417 C 353.336 47.402,352.810 46.345,352.393 45.976 C 351.516 45.201,347.088 43.291,344.250 42.463 C 342.730 42.020,331.592 41.848,329.583 42.237 M369.526 42.184 C 368.670 42.260,367.245 42.521,366.360 42.764 C 365.186 43.085,364.093 43.242,362.325 43.342 C 358.270 43.572,357.113 44.284,356.158 47.138 C 354.855 51.031,357.199 54.018,362.250 54.902 L 363.417 55.106 363.462 71.261 C 363.488 80.147,363.471 87.569,363.427 87.756 C 363.320 88.199,362.648 88.427,360.526 88.741 C 357.691 89.160,356.727 89.887,356.006 92.147 C 355.613 93.379,355.554 95.308,355.890 95.974 C 356.012 96.218,356.290 96.782,356.507 97.228 C 357.517 99.309,357.689 99.333,371.527 99.333 C 383.305 99.333,384.085 99.295,385.344 98.659 C 387.963 97.334,387.931 90.980,385.297 89.500 C 384.770 89.203,382.518 88.484,379.958 87.795 L 379.333 87.626 379.333 70.652 C 379.333 56.372,379.371 53.591,379.570 53.131 C 380.917 50.009,380.434 44.857,378.641 43.228 C 377.363 42.067,374.515 41.741,369.526 42.184 M140.720 45.007 C 140.245 45.092,139.157 45.380,138.303 45.649 C 137.449 45.917,136.304 46.262,135.760 46.416 C 129.947 48.052,122.756 55.364,120.843 61.583 C 120.730 61.950,120.503 62.550,120.338 62.917 C 119.836 64.031,119.518 65.288,119.397 66.635 C 119.333 67.340,119.094 68.442,118.865 69.083 C 118.474 70.183,118.446 70.491,118.379 74.467 C 118.305 78.849,118.346 79.231,119.089 81.167 C 119.212 81.487,119.387 82.516,119.477 83.451 C 119.607 84.799,119.761 85.422,120.219 86.451 C 120.537 87.166,120.887 88.036,120.998 88.385 C 122.988 94.663,130.193 101.583,136.230 103.015 C 136.974 103.191,138.187 103.523,138.925 103.751 C 141.300 104.485,146.578 104.710,149.083 104.184 C 158.712 102.161,164.680 97.564,168.796 89.000 C 169.171 88.221,169.606 87.133,169.763 86.583 C 169.920 86.033,170.256 85.021,170.510 84.333 C 171.731 81.026,171.724 68.246,170.500 65.000 C 170.241 64.313,169.903 63.304,169.750 62.759 C 169.597 62.214,169.263 61.351,169.007 60.842 C 168.752 60.333,168.486 59.729,168.417 59.500 C 166.966 54.729,159.246 47.862,153.417 46.158 C 152.408 45.863,151.096 45.472,150.500 45.290 C 149.269 44.913,142.370 44.714,140.720 45.007 M40.083 56.761 C 40.719 56.992,41.789 57.890,42.647 58.913 C 42.865 59.173,43.408 60.124,43.855 61.027 L 44.667 62.669 44.667 65.601 C 44.667 68.164,44.629 68.587,44.363 68.974 C 44.196 69.218,43.811 69.867,43.507 70.417 C 41.307 74.402,37.067 75.465,33.793 72.853 C 31.399 70.943,30.653 68.272,31.134 63.333 C 31.615 58.402,35.911 55.246,40.083 56.761 M147.025 56.671 C 149.302 57.303,152.174 60.401,152.908 63.016 C 153.070 63.594,153.376 64.446,153.587 64.909 C 153.853 65.490,154.053 66.446,154.233 68.000 C 154.399 69.435,154.630 70.582,154.870 71.167 C 155.430 72.532,155.430 76.801,154.870 78.167 C 154.630 78.751,154.399 79.898,154.233 81.333 C 154.054 82.872,153.852 83.847,153.592 84.417 C 153.383 84.875,153.087 85.683,152.934 86.212 C 152.107 89.065,149.335 91.955,146.798 92.606 C 143.794 93.377,141.275 92.322,138.793 89.250 C 137.922 88.171,136.732 85.487,136.477 84.023 C 136.372 83.416,136.071 82.287,135.809 81.512 L 135.333 80.104 135.333 74.322 L 135.333 68.540 135.766 67.596 C 136.004 67.076,136.307 66.018,136.441 65.243 C 136.830 62.989,138.077 60.747,140.120 58.625 C 141.990 56.685,144.508 55.972,147.025 56.671 M202.351 57.841 C 203.564 58.028,205.876 59.088,206.758 59.863 L 207.333 60.368 207.333 73.154 L 207.333 85.939 206.125 87.114 C 202.865 90.282,198.107 92.068,195.417 91.133 C 192.722 90.196,190.229 86.695,189.821 83.274 C 189.709 82.338,189.470 81.364,189.200 80.750 C 188.531 79.222,188.446 74.177,189.060 72.418 C 189.473 71.235,189.729 69.857,189.925 67.763 C 190.230 64.497,193.338 59.160,195.545 58.113 C 196.844 57.497,199.437 57.393,202.351 57.841 M95.077 58.494 C 95.286 58.690,95.735 59.254,96.074 59.748 L 96.692 60.645 96.840 63.698 C 97.015 67.293,97.046 82.519,96.890 87.696 L 96.781 91.308 95.349 91.425 C 93.221 91.598,91.986 92.031,91.067 92.924 C 90.145 93.820,90.282 93.815,89.381 92.985 C 88.377 92.059,87.521 91.716,85.660 91.493 C 84.793 91.389,83.915 91.272,83.708 91.232 L 83.333 91.160 83.333 78.493 L 83.333 65.826 83.789 65.121 C 87.023 60.115,93.042 56.582,95.077 58.494 M35.698 102.473 C 36.905 102.831,39.169 103.089,42.571 103.256 C 47.525 103.500,48.808 104.436,48.958 107.914 C 49.095 111.087,48.608 111.799,45.450 113.038 C 42.585 114.163,36.981 114.633,33.854 114.012 C 28.534 112.955,26.012 109.138,28.273 105.567 C 28.789 104.751,29.310 103.769,29.429 103.384 C 29.897 101.872,29.744 101.943,32.310 102.048 C 33.858 102.112,34.939 102.247,35.698 102.473 " stroke="none" fill="#fc0404" fill-rule="evenodd"></path></g></svg>